<svg height="48" width="48" xmlns="http://www.w3.org/2000/svg" xmlns:xlink="http://www.w3.org/1999/xlink"><linearGradient id="a" gradientUnits="userSpaceOnUse" x2="0" y1="543.8" y2="503.8"><stop offset="0" stop-color="#c6cdd1"/><stop offset="1" stop-color="#e0e5e7"/></linearGradient><linearGradient id="b" gradientTransform="matrix(1 0 0 -1 384.57 545.8)" gradientUnits="userSpaceOnUse" x2="0" y1="13" y2="33"><stop offset="0" stop-color="#42a603"/><stop offset="1" stop-color="#78da06"/></linearGradient><linearGradient id="c" gradientUnits="userSpaceOnUse" x2="0" xlink:href="#b" y1="42" y2="6"/><linearGradient id="d" gradientUnits="userSpaceOnUse" x1="410.57" x2="428.57" y1="539.8" y2="523.8"><stop offset="0" stop-color="#42a603"/><stop offset="1" stop-color="#78da06" stop-opacity="0"/></linearGradient><linearGradient id="e" gradientUnits="userSpaceOnUse" x1="18" x2="34" y1="21" y2="37"><stop offset="0" stop-color="#292c2f"/><stop offset="1" stop-opacity="0"/></linearGradient><g transform="translate(-384.57 -499.8)"><rect fill="url(#a)" height="40" rx="20" stroke-opacity=".55" stroke-width="2.8" width="40" x="388.57" y="503.8"/><path d="m28 13-4 20 9 9c5.685-1.796 7.313-4.989 9.531-10.469l1.469-3.531z" fill="url(#e)" fill-rule="evenodd" opacity=".2" transform="translate(384.57 499.8)"/><g stroke-opacity=".55" stroke-width="2.8"><path d="m408.57 532.8-9-9h5v-11h8v11h5z" fill="url(#b)"/><path d="m24 42c9.972 0 18-8.03 18-18 0-9.972-8.03-18-18-18v2c8.864 0 16 7.136 16 16s-7.136 16-16 16z" fill="#808080" opacity=".5" transform="translate(384.57 499.8)"/><path d="m408.57 505.8c-9.972 0-18 8.03-18 18 0 9.972 8.03 18 18 18 9.972 0 18-8.03 18-18 0-9.972-8.03-18-18-18m0 2c8.864 0 16 7.136 16 16s-7.136 16-16 16-16-7.136-16-16 7.136-16 16-16" fill="url(#d)"/><g transform="translate(384.57 499.8)"><path d="m24 42v-2c-8.864 0-16-7.136-16-16s7.136-16 16-16v-2c-9.972 0-18 8.03-18 18 0 9.972 8.03 18 18 18" fill="url(#c)"/><path d="m4.01 23.5c-.004.167-.012.332-.012.5 0 11.08 8.92 20 20 20s20-8.92 20-20c0-.168-.008-.333-.012-.5-.264 10.847-9.08 19.5-19.988 19.5-10.912 0-19.724-8.653-19.988-19.5" fill="#99a1a7"/></g></g></g></svg>